<?xml version="1.0" encoding="UTF-8"?>
<svg id="Layer_1" data-name="Layer 1" xmlns="http://www.w3.org/2000/svg" version="1.1" xmlns:xlink="http://www.w3.org/1999/xlink" viewBox="0 0 3165.5 429.3">
  <defs>
    <style>
      .cls-1 {
        fill: url(#linear-gradient);
      }

      .cls-1, .cls-2, .cls-3, .cls-4 {
        stroke-width: 0px;
      }

      .cls-2 {
        fill: #000;
      }

      .cls-5 {
        opacity: .6;
      }

      .cls-3 {
        fill: #f9b558;
      }

      .cls-6 {
        mask: url(#mask);
      }

      .cls-4 {
        fill: #fdd378;
      }
    </style>
    <linearGradient id="linear-gradient" x1="2924.2" y1="36.6" x2="3035.4" y2="398.1" gradientTransform="translate(0 427.5) scale(1 -1)" gradientUnits="userSpaceOnUse">
      <stop offset="0" stop-color="#fdc865"/>
      <stop offset=".4" stop-color="#f9e6bd"/>
      <stop offset="1" stop-color="#fdc865"/>
    </linearGradient>
    <mask id="mask" x="2798.8" y="9.3" width="359" height="412.1" maskUnits="userSpaceOnUse"/>
  </defs>
  <g>
    <g>
      <polygon class="cls-1" points="2801.8 11.8 2870 11.8 2978 187.2 3086.1 11.8 3154.3 11.8 2995.7 215.1 3154.7 418.7 3086.4 418.7 2978.2 244.3 2870 418.7 2801.8 418.7 2960.4 215.5 2801.8 11.8"/>
      <path class="cls-4" d="M3155.7,419.2h-69.5v-.2c-.1,0-107.9-173.7-107.9-173.7l-107.9,173.9h-69.5l159-203.7-159-204.1h69.5l107.8,174.9,107.8-174.9h69.5l-.6.8-158.4,202.9,159.3,204.1ZM3086.7,418.2h66.9l-158.5-203.1.2-.3,158-202.4h-66.9l-108.4,175.8-108.3-175.8h-66.9l158.2,203.1-158.2,202.7h66.9l108.5-174.8,108.5,174.8Z"/>
    </g>
    <g class="cls-6">
      <g class="cls-5">
        <g>
          <polygon class="cls-3" points="2801.8 11.8 2870 11.8 2978 187.2 3086.1 11.8 3154.3 11.8 2995.7 215.1 3154.7 418.7 3086.4 418.7 2978.2 244.3 2870 418.7 2801.8 418.7 2960.4 215.5 2801.8 11.8"/>
          <path class="cls-3" d="M3155.7,419.2h-69.5v-.2c-.1,0-107.9-173.7-107.9-173.7l-107.9,173.9h-69.5l159-203.7-159-204.1h69.5l107.8,174.9,107.8-174.9h69.5l-.6.8-158.4,202.9,159.3,204.1ZM3086.7,418.2h66.9l-158.5-203.1.2-.3,158-202.4h-66.9l-108.4,175.8-108.3-175.8h-66.9l158.2,203.1-158.2,202.7h66.9l108.5-174.8,108.5,174.8Z"/>
        </g>
      </g>
    </g>
  </g>
  <g>
    <path class="cls-2" d="M481.6,28.2l-108.2,384.7h-42.9l-71.3-265.2-90.5,265.2h-42.3L23,28.2h50.9l78.8,301.6,83-242.7-13.9-58.9h54.1l76.6,301.6L429.1,28.2h52.5Z"/>
    <path class="cls-2" d="M750.5,280.2c0,41-11.2,74.2-33.8,99.7-22.5,25.5-51.6,38.2-87.3,38.2s-64.1-12.7-86.3-38.2c-22.1-25.5-33.2-58.7-33.2-99.7s11.2-72.8,33.8-98.7c22.5-25.8,51.1-38.8,85.7-38.8s63.9,12.9,86.8,38.8c22.9,25.8,34.3,58.7,34.3,98.7ZM703.4,280.2c0-30.6-6.8-55-20.5-73.2-13.7-18.2-31.5-27.3-53.4-27.3s-39.5,9.1-52.7,27.3c-13.1,18.2-19.7,42.6-19.7,73.2s6.6,54.7,19.9,73.2c13.3,18.5,30.8,27.8,52.4,27.8s39.8-9.4,53.4-28.1c13.6-18.7,20.5-43,20.5-72.9Z"/>
    <path class="cls-2" d="M955.2,190h-22.5c-41.1,0-67.3,11.1-78.8,33.4v189.5h-45.5v-187c0-32.1-8.9-50.9-26.8-56.3l35.9-25.7c16.1,7.1,27.7,20.7,34.8,40.7,25.7-27.1,54.8-40.7,87.3-40.7s12,.2,15.5.5v45.5h0Z"/>
    <path class="cls-2" d="M1213.9,412.8h-53l-77.7-143-45,44.5v98.6h-45.5V28.2h45.5v230.9l87.3-86.1c19.6-19.4,43.9-29.1,72.9-29.1v39.6h-5.9c-15.7,0-41.6,18.8-77.7,56.4l99.1,172.9Z"/>
    <path class="cls-2" d="M1436.8,340.5c0,24.3-9.6,43.8-28.7,58.4-19.1,14.6-43.5,21.8-73.1,21.4-28.2-.4-51.4-7.5-69.6-21.4-20.4-15.4-30.9-36.8-31.6-64.3h52.9c1.8,31.8,18.9,48,51.3,48.8,13.5-.4,25.1-3.6,34.7-9.6,11.4-7.1,17.1-17.3,17.1-30.5s-12.8-29.9-38.4-39.6c-23.8-8.9-47.7-17.8-71.5-26.7-25.6-13.5-38.4-33.5-38.4-59.9s7.7-38,23-52.1c15.4-14.1,34.6-21.1,57.9-21.1s44.8,6.1,60.5,18.2c17.5,13.6,26.3,32,26.3,55.2h-46.6c1.1-3.3,1.6-6.3,1.6-9.2,0-8.7-3.8-15.8-11.5-21.2-7.7-5.4-16.2-7.6-25.4-6.5-27.1,2.9-40.7,14.6-40.7,35.4s13,27.1,39.1,36.4c46.4,16.8,70.5,25.7,72.3,26.8,26.1,14.3,39.1,34.8,39.1,61.6Z"/>
    <path class="cls-2" d="M1608.2,413.9c-15.7,2.1-26.8,3.2-33.2,3.2-33.6,0-55.7-12.1-66.4-36.4-5.7-13.6-8.6-37.5-8.6-71.8v-128.6h-42.9v-34.3h42.9v-41.8l45.5-19.8v61.6h60v34.3h-60v130.2c0,22.1,1.4,37.3,4.3,45.5,5.4,15.7,16.6,23.6,33.8,23.6s13.2-.7,24.6-2.1v36.4Z"/>
    <path class="cls-2" d="M1797.3,190h-22.5c-41.1,0-67.3,11.1-78.8,33.4v189.5h-45.5v-187c0-32.1-8.9-50.9-26.8-56.3l35.9-25.7c16.1,7.1,27.7,20.7,34.8,40.7,25.7-27.1,54.8-40.7,87.3-40.7s12,.2,15.5.5v45.5Z"/>
    <path class="cls-2" d="M2059.3,292.3h-192.9c1.8,23.7,7.7,43.7,17.7,59.8,12.9,21.2,31.1,31.8,54.6,31.8s48.8-13.4,61.6-40.2h48.2c-18.9,51.1-55.5,76.6-109.8,76.6s-71.3-15.7-92.7-47.1c-17.1-25.7-25.7-56.9-25.7-93.6s11.2-72.1,33.5-97.6c22.3-25.5,50.6-38.2,84.9-38.2s72.9,14.9,94.3,44.7c17.5,24.5,26.3,54.8,26.3,91v12.8h0ZM2011.1,253.7c-7.5-49.3-31.6-73.9-72.3-73.9s-61.6,24.6-70.2,73.9h142.5Z"/>
    <path class="cls-2" d="M2328.3,397.8l-36.4,25.2c-16.8-8.2-27.5-21.2-32.1-39.1-7.9,8.9-19.3,17-34.3,24.1-16.4,7.9-32.1,11.8-47.1,11.8-25,0-45.5-8.2-61.6-24.7-15.4-15-23-33.3-23-54.8s9.1-41.7,27.3-55.3c13.2-10.4,34.1-19.3,62.7-26.8,23.9-6.1,47.7-12.2,71.3-18.3v-12.9c0-13.2-3.9-24-11.8-32.2-8.9-9.3-21.1-14-36.4-14s-28.5,3-36.2,9c-7.7,6-14.4,16.2-20.1,30.7h-46.1c2.9-20.9,14.5-38.8,34.8-54,20.4-15.1,42.9-22.7,67.5-22.7s51.3,7,68.3,20.9c17,14,25.4,32.7,25.4,56.4v113.8c0,36.5,9.3,57.4,27.9,62.8ZM2254.9,334.4v-56c-41.4,9.3-66.1,15.6-73.9,18.9-28.2,11.1-42.3,27.1-42.3,47.9s3.8,18.6,11.3,25.6c7.5,7,17.3,10.5,29.5,10.5s29.1-5.6,47.7-17c18.6-11.3,27.9-21.3,27.9-29.9Z"/>
    <path class="cls-2" d="M2727.9,418.8h-44.5v-174.7c0-17.5-4.7-31.9-14.2-43.1-9.5-11.2-23.1-16.9-41-16.9s-24.7,4.2-36.7,12.6c-12,8.4-17.9,17.6-17.9,27.6v194.5h-44.5v-174.7c0-17.1-4.9-31.4-14.7-42.9-9.8-11.4-23.3-17.1-40.4-17.1s-38.8,9.6-54.1,28.9v205.7h-44.5v-199.3c0-10-2.3-19.6-7-28.9-4.6-9.3-10-14.8-16.1-16.6l32.7-22.5c14.3,7.1,23.7,18,28.4,32.7,17.9-23.6,41.6-35.4,71.3-35.4s49.3,14.3,67.5,42.9c7.1-12.1,17.9-22.3,32.4-30.5,14.5-8.2,29-12.3,43.7-12.3,66.4,0,99.6,30.7,99.6,92.1v177.9h0Z"/>
  </g>
</svg>